PathFileType	4	(X/Y/Z)	 0.16m3min.trc
DataRate	CameraRate	NumFrames	NumMarkers	Units	OrigDataRate	OrigDataStartFrame	OrigNumFrames
200	200	9	43	m	200	500	999
Frame#	Time	C7			LSH			RSH			MAN			RASI			LASI			HIPR			HIPL			RPSI			LPSI			COX			RTHI1			RTHI2			RTHI3			RTHI4			RLKN			RMKN			RSHA1			RSHA2			RSHA3			RSHA4			RLMAL			RMMAL			RHEEL			RMET5			RMET1			RTOE			LTHI1			LTHI2			LTHI3			LTHI4			LLKN			LMKN			LSHA1			LSHA2			LSHA3			LSHA4			LLMAL			LMMAL			LHEEL			LMET5			LMET1			LTOE			
		X1	Y1	Z1	X2	Y2	Z2	X3	Y3	Z3	X4	Y4	Z4	X5	Y5	Z5	X6	Y6	Z6	X7	Y7	Z7	X8	Y8	Z8	X9	Y9	Z9	X10	Y10	Z10	X11	Y11	Z11	X12	Y12	Z12	X13	Y13	Z13	X14	Y14	Z14	X15	Y15	Z15	X16	Y16	Z16	X17	Y17	Z17	X18	Y18	Z18	X19	Y19	Z19	X20	Y20	Z20	X21	Y21	Z21	X22	Y22	Z22	X23	Y23	Z23	X24	Y24	Z24	X25	Y25	Z25	X26	Y26	Z26	X27	Y27	Z27	X28	Y28	Z28	X29	Y29	Z29	X30	Y30	Z30	X31	Y31	Z31	X32	Y32	Z32	X33	Y33	Z33	X34	Y34	Z34	X35	Y35	Z35	X36	Y36	Z36	X37	Y37	Z37	X38	Y38	Z38	X39	Y39	Z39	X40	Y40	Z40	X41	Y41	Z41	X42	Y42	Z42	X43	Y43	Z43	
500	2.5000	-0.325253	1.601259	-0.585112	-0.231929	1.584465	-0.772510	-0.266934	1.580137	-0.385508	-0.187140	1.538201	-0.571596	-0.227579	1.077636	-0.453663	-0.184947	1.090695	-0.689959	-0.298993	1.147590	-0.425647	-0.247764	1.145788	-0.738367	-0.390442	1.136419	-0.543611	-0.372732	1.140803	-0.642507	-0.386045	1.135604	-0.594381	-0.350935	0.836748	-0.415511	-0.342791	0.777723	-0.418576	-0.282879	0.782528	-0.393797	-0.283369	0.843783	-0.390063	-0.304003	0.559234	-0.428741	-0.264978	0.549374	-0.537001	-0.353949	0.432431	-0.417093	-0.374454	0.394363	-0.422583	-0.306959	0.413894	-0.430560	-0.318865	0.374603	-0.439259	-0.441083	0.176574	-0.480339	-0.388343	0.187278	-0.549961	-0.474291	0.186216	-0.546656	-0.371736	0.077344	-0.442090	-0.305501	0.079115	-0.485531	-0.288631	0.067709	-0.473723	-0.244437	0.856442	-0.778640	-0.229891	0.796469	-0.778285	-0.166497	0.806432	-0.768481	-0.172457	0.866262	-0.768095	-0.208450	0.593340	-0.762459	-0.208833	0.560159	-0.649489	-0.280209	0.437769	-0.787119	-0.296157	0.400627	-0.784997	-0.246097	0.383778	-0.753828	-0.233085	0.423555	-0.764138	-0.385594	0.211781	-0.767464	-0.361245	0.212603	-0.684011	-0.442359	0.215621	-0.710909	-0.318331	0.100476	-0.779224	-0.262325	0.102195	-0.718739	-0.246815	0.091272	-0.728234	
501	2.5050	-0.324402	1.595359	-0.584987	-0.231152	1.577979	-0.772399	-0.266504	1.573588	-0.385280	-0.186691	1.531508	-0.571382	-0.228557	1.071747	-0.453943	-0.186044	1.084669	-0.690083	-0.299864	1.141955	-0.425820	-0.248601	1.139912	-0.738633	-0.391260	1.130900	-0.543798	-0.373682	1.135247	-0.642847	-0.387001	1.130106	-0.594631	-0.350965	0.830854	-0.415310	-0.342662	0.771849	-0.418252	-0.282635	0.776885	-0.393836	-0.283276	0.838139	-0.390228	-0.303080	0.553458	-0.428310	-0.264238	0.543649	-0.536732	-0.353437	0.426833	-0.416943	-0.373976	0.388870	-0.422390	-0.306437	0.408185	-0.430319	-0.318485	0.368915	-0.439037	-0.441317	0.171307	-0.480385	-0.388435	0.181837	-0.549953	-0.474371	0.181318	-0.546755	-0.372725	0.071303	-0.442403	-0.306482	0.072901	-0.485757	-0.289759	0.061520	-0.473866	-0.244477	0.850511	-0.778621	-0.229601	0.790622	-0.778310	-0.166284	0.800921	-0.768405	-0.172560	0.860711	-0.767974	-0.206974	0.587672	-0.762354	-0.207628	0.554563	-0.649382	-0.279285	0.432409	-0.787202	-0.295508	0.395390	-0.785080	-0.245674	0.378238	-0.753711	-0.232338	0.417899	-0.764041	-0.386121	0.207226	-0.767739	-0.362281	0.207997	-0.684143	-0.443415	0.210807	-0.711621	-0.318286	0.096604	-0.779599	-0.262559	0.098354	-0.718635	-0.246880	0.087545	-0.728013	
502	2.5100	-0.323513	1.589203	-0.584867	-0.230295	1.571236	-0.772293	-0.266052	1.566788	-0.385047	-0.186196	1.524559	-0.571156	-0.229607	1.065642	-0.454211	-0.187191	1.078408	-0.690212	-0.300830	1.136088	-0.426012	-0.249542	1.133774	-0.738907	-0.392146	1.125124	-0.543983	-0.374694	1.129433	-0.643172	-0.388021	1.124365	-0.594877	-0.350964	0.824705	-0.415080	-0.342489	0.765724	-0.417889	-0.282340	0.771018	-0.393829	-0.283169	0.832288	-0.390363	-0.302083	0.547472	-0.427807	-0.263376	0.537695	-0.536371	-0.352862	0.421049	-0.416741	-0.373453	0.383165	-0.422166	-0.305868	0.402233	-0.430003	-0.318061	0.363025	-0.438772	-0.441589	0.165871	-0.480516	-0.388526	0.176206	-0.550000	-0.474428	0.176303	-0.546983	-0.373913	0.065017	-0.442865	-0.307594	0.066479	-0.486347	-0.290983	0.055280	-0.474366	-0.244470	0.844380	-0.778609	-0.229273	0.784566	-0.778325	-0.166042	0.795203	-0.768294	-0.172626	0.854950	-0.767826	-0.205466	0.581782	-0.762210	-0.206483	0.548777	-0.649219	-0.278251	0.426793	-0.787246	-0.294730	0.389898	-0.785124	-0.245131	0.372463	-0.753530	-0.231487	0.412015	-0.763876	-0.386535	0.202457	-0.768040	-0.363236	0.203152	-0.684293	-0.444364	0.205843	-0.712357	-0.318252	0.092455	-0.779982	-0.262823	0.094083	-0.718528	-0.247004	0.083330	-0.727772	
503	2.5150	-0.322578	1.582793	-0.584755	-0.229355	1.564227	-0.772187	-0.265573	1.559728	-0.384813	-0.185660	1.517348	-0.570922	-0.230728	1.059322	-0.454467	-0.188395	1.071918	-0.690350	-0.301897	1.129988	-0.426221	-0.250592	1.127381	-0.739191	-0.393110	1.119094	-0.544170	-0.375782	1.123378	-0.643483	-0.389113	1.118376	-0.595120	-0.350931	0.818310	-0.414823	-0.342262	0.759364	-0.417482	-0.282016	0.764952	-0.393775	-0.283051	0.826233	-0.390461	-0.301012	0.541270	-0.427217	-0.262396	0.531516	-0.535910	-0.352242	0.415040	-0.416485	-0.372903	0.377252	-0.421912	-0.305265	0.396049	-0.429628	-0.317625	0.356876	-0.438456	-0.441996	0.160300	-0.480803	-0.388760	0.170432	-0.550184	-0.474648	0.171100	-0.547403	-0.375286	0.058766	-0.443412	-0.308687	0.060217	-0.487388	-0.292151	0.049442	-0.475357	-0.244420	0.838051	-0.778604	-0.228909	0.778308	-0.778326	-0.165766	0.789275	-0.768147	-0.172656	0.848990	-0.767661	-0.203929	0.575675	-0.762031	-0.205416	0.542807	-0.649007	-0.277094	0.420930	-0.787246	-0.293816	0.384150	-0.785128	-0.244465	0.366462	-0.753284	-0.230528	0.405905	-0.763639	-0.386850	0.197471	-0.768368	-0.364109	0.198077	-0.684464	-0.445196	0.200731	-0.713108	-0.318239	0.088004	-0.780364	-0.263135	0.089346	-0.718422	-0.247208	0.078585	-0.727524	
504	2.5200	-0.321616	1.576127	-0.584650	-0.228332	1.556959	-0.772086	-0.265068	1.552422	-0.384575	-0.185081	1.509882	-0.570678	-0.231924	1.052784	-0.454715	-0.189651	1.065196	-0.690501	-0.303065	1.123630	-0.426444	-0.251743	1.120741	-0.739482	-0.394162	1.112805	-0.544362	-0.376943	1.117058	-0.643772	-0.390282	1.112140	-0.595359	-0.350874	0.811657	-0.414552	-0.341987	0.752743	-0.417051	-0.281656	0.758655	-0.393666	-0.282925	0.819962	-0.390514	-0.299844	0.534851	-0.426532	-0.261283	0.525100	-0.535343	-0.351608	0.408778	-0.416194	-0.372329	0.371117	-0.421616	-0.304653	0.389602	-0.429215	-0.317187	0.350478	-0.438114	-0.442718	0.154670	-0.481356	-0.389366	0.164657	-0.550639	-0.475298	0.165637	-0.548114	-0.376731	0.052907	-0.443974	-0.309612	0.054547	-0.488767	-0.293061	0.044457	-0.476820	-0.244327	0.831527	-0.778608	-0.228504	0.771858	-0.778312	-0.165455	0.783144	-0.767972	-0.172652	0.842827	-0.767478	-0.202361	0.569354	-0.761815	-0.204423	0.536651	-0.648742	-0.275810	0.414822	-0.787210	-0.292763	0.378156	-0.785103	-0.243679	0.360249	-0.752967	-0.229463	0.399577	-0.763323	-0.387075	0.192270	-0.768709	-0.364898	0.192761	-0.684640	-0.445923	0.195466	-0.713859	-0.318256	0.083231	-0.780752	-0.263510	0.084121	-0.718325	-0.247514	0.073278	-0.727282	
505	2.5250	-0.320619	1.569213	-0.584546	-0.227225	1.549432	-0.771989	-0.264531	1.544867	-0.384332	-0.184470	1.502164	-0.570428	-0.233191	1.046033	-0.454966	-0.190955	1.058260	-0.690666	-0.304327	1.117023	-0.426681	-0.252993	1.113853	-0.739786	-0.395298	1.106252	-0.544547	-0.378181	1.110478	-0.644045	-0.391532	1.105646	-0.595595	-0.350796	0.804745	-0.414274	-0.341658	0.745878	-0.416594	-0.281259	0.752125	-0.393500	-0.282785	0.813477	-0.390495	-0.298546	0.528190	-0.425750	-0.260033	0.518430	-0.534667	-0.350983	0.402229	-0.415883	-0.371783	0.364761	-0.421321	-0.304079	0.382858	-0.428799	-0.316799	0.343811	-0.437800	-0.443787	0.149065	-0.482209	-0.390553	0.159038	-0.551477	-0.476553	0.159939	-0.549199	-0.378212	0.047806	-0.444510	-0.310363	0.049856	-0.490330	-0.293644	0.040738	-0.478602	-0.244190	0.824806	-0.778621	-0.228060	0.765208	-0.778281	-0.165109	0.776814	-0.767762	-0.172611	0.836468	-0.767274	-0.200763	0.562823	-0.761562	-0.203514	0.530298	-0.648429	-0.274411	0.408474	-0.787142	-0.291578	0.371917	-0.785053	-0.242792	0.353811	-0.752575	-0.228300	0.393033	-0.762935	-0.387217	0.186864	-0.769056	-0.365615	0.187219	-0.684837	-0.446541	0.190058	-0.714614	-0.318304	0.078142	-0.781159	-0.263951	0.078391	-0.718235	-0.247932	0.067378	-0.727041	
506	2.5300	-0.319593	1.562057	-0.584445	-0.226041	1.541652	-0.771893	-0.263964	1.537062	-0.384085	-0.183836	1.494188	-0.570175	-0.234538	1.039067	-0.455228	-0.192300	1.051110	-0.690845	-0.305680	1.110156	-0.426928	-0.254331	1.106725	-0.740106	-0.396542	1.099464	-0.544745	-0.379493	1.103647	-0.644316	-0.392860	1.098871	-0.595820	-0.350699	0.797569	-0.413991	-0.341281	0.738762	-0.416120	-0.280829	0.745385	-0.393267	-0.282635	0.806769	-0.390394	-0.297081	0.521251	-0.424880	-0.258597	0.511488	-0.533871	-0.350394	0.395424	-0.415604	-0.371337	0.358187	-0.421106	-0.303588	0.375783	-0.428429	-0.316544	0.336863	-0.437593	-0.445211	0.143583	-0.483377	-0.392498	0.153681	-0.552790	-0.478567	0.154132	-0.550672	-0.379752	0.043784	-0.444915	-0.310988	0.046421	-0.491975	-0.293963	0.038280	-0.480507	-0.244017	0.817883	-0.778633	-0.227588	0.758356	-0.778231	-0.164731	0.770280	-0.767516	-0.172540	0.829909	-0.767047	-0.199139	0.556074	-0.761266	-0.202673	0.523750	-0.648076	-0.272911	0.401887	-0.787063	-0.290287	0.365434	-0.784982	-0.241832	0.347140	-0.752111	-0.227060	0.386276	-0.762473	-0.387270	0.181252	-0.769413	-0.366284	0.181442	-0.685049	-0.447047	0.184525	-0.715374	-0.318383	0.072717	-0.781593	-0.264478	0.072209	-0.718161	-0.248496	0.061067	-0.726800	
507	2.5350	-0.318534	1.554667	-0.584341	-0.224777	1.533622	-0.771801	-0.263361	1.529015	-0.383832	-0.183172	1.485952	-0.569916	-0.235951	1.031878	-0.455505	-0.193671	1.043746	-0.691052	-0.307124	1.103030	-0.427184	-0.255749	1.099369	-0.740451	-0.397884	1.092416	-0.544936	-0.380896	1.096552	-0.644571	-0.394277	1.091813	-0.596044	-0.350602	0.790137	-0.413712	-0.340856	0.731411	-0.415625	-0.280404	0.738438	-0.392950	-0.282497	0.799841	-0.390198	-0.295419	0.514043	-0.423949	-0.256930	0.504281	-0.532950	-0.349889	0.388355	-0.415441	-0.371008	0.351456	-0.421016	-0.303226	0.368378	-0.428180	-0.316503	0.329612	-0.437573	-0.447060	0.138369	-0.484860	-0.395248	0.148702	-0.554596	-0.481415	0.148334	-0.552423	-0.381284	0.040930	-0.445140	-0.311552	0.044247	-0.493300	-0.294167	0.036873	-0.482150	-0.243816	0.810756	-0.778641	-0.227088	0.751308	-0.778165	-0.164327	0.763544	-0.767232	-0.172445	0.823150	-0.766792	-0.197488	0.549118	-0.760926	-0.201896	0.517008	-0.647692	-0.271328	0.395071	-0.786981	-0.288918	0.358703	-0.784895	-0.240818	0.340247	-0.751586	-0.225763	0.379312	-0.761952	-0.387271	0.175462	-0.769789	-0.366919	0.175441	-0.685275	-0.447466	0.178861	-0.716135	-0.318522	0.066976	-0.782052	-0.265193	0.065826	-0.717994	-0.249158	0.054718	-0.726425	
508	2.5400	-0.317447	1.547056	-0.584228	-0.223432	1.525354	-0.771715	-0.262727	1.520736	-0.383569	-0.182463	1.477473	-0.569646	-0.237438	1.024459	-0.455797	-0.195056	1.036180	-0.691289	-0.308648	1.095632	-0.427444	-0.257234	1.091794	-0.740825	-0.399334	1.085115	-0.545133	-0.382390	1.089183	-0.644816	-0.395784	1.084476	-0.596269	-0.350513	0.782449	-0.413434	-0.340397	0.723800	-0.415122	-0.279983	0.731289	-0.392527	-0.282398	0.792706	-0.389893	-0.293516	0.506587	-0.423009	-0.254954	0.496807	-0.531887	-0.349471	0.381104	-0.415446	-0.370811	0.344657	-0.421094	-0.302998	0.360676	-0.428107	-0.316705	0.322136	-0.437806	-0.449302	0.133601	-0.486579	-0.398670	0.144124	-0.556809	-0.484955	0.142699	-0.554327	-0.382755	0.039095	-0.445238	-0.312237	0.043091	-0.494141	-0.294420	0.036173	-0.483291	-0.243594	0.803419	-0.778647	-0.226564	0.744058	-0.778089	-0.163912	0.756612	-0.766905	-0.172335	0.816182	-0.766499	-0.195817	0.541960	-0.760541	-0.201165	0.510067	-0.647280	-0.269692	0.388031	-0.786918	-0.287500	0.351741	-0.784811	-0.239783	0.333137	-0.751024	-0.224438	0.372138	-0.761393	-0.387311	0.169530	-0.770204	-0.367610	0.169241	-0.685546	-0.447896	0.173026	-0.716896	-0.318766	0.061026	-0.782521	-0.266211	0.059464	-0.717582	-0.250003	0.048713	-0.725842	
